<?xml version="1.0" encoding="utf-8"?>
<!-- Generator: Adobe Illustrator 23.0.1, SVG Export Plug-In . SVG Version: 6.00 Build 0)  -->
<svg version="1.1" id="Layer_1" xmlns="http://www.w3.org/2000/svg" xmlns:xlink="http://www.w3.org/1999/xlink" x="0px" y="0px"
	 viewBox="0 0 266 69.3" style="enable-background:new 0 0 266 69.3;" xml:space="preserve">
<style type="text/css">
	.st0{fill:#FFFFFF;}
	.st1{font-family:'Impact';}
	.st2{font-size:60px;}
	.st3{fill:#0099CD;}
	.st4{fill:#BDC3C7;}
	.st5{fill:#EDF0F1;}
	.st6{fill:#0099CE;}
	.st7{fill:#007299;}
	.st8{fill:#364A5E;}
	.st9{fill:#7F8C8D;}
	.st10{fill:#95A5A6;}
</style>
<title>Asset 1</title>
<g>
	<g id="Layer_1-2">
		<text transform="matrix(1 0 0 1 0 59.04)" class="st0 st1 st2">True</text>
		<text transform="matrix(1 0 0 1 111.15 59.04)" class="st3 st1 st2">Blu</text>
		<path class="st4" d="M208.4,9.1c-3.3,0-6.1,2.7-6.1,6.1v42.4c0,3.3,2.7,6.1,6.1,6.1h42.4c3.3,0,6.1-2.7,6.1-6.1V15.2
			c0-3.3-2.7-6.1-6.1-6.1h0H208.4z"/>
		<path class="st5" d="M208.4,6.1c-3.3,0-6.1,2.7-6.1,6.1c0,0,0,0,0,0v42.4c0,3.3,2.7,6.1,6,6.1c0,0,0,0,0,0h42.4
			c3.3,0,6.1-2.7,6.1-6.1c0,0,0,0,0,0V12.1c0-3.3-2.7-6.1-6-6.1c0,0,0,0,0,0H208.4z"/>
		<path class="st6" d="M208.4,6.1c-3.3,0-6.1,2.7-6.1,6.1c0,0,0,0,0,0v12.1h54.6V12.1c0-3.3-2.7-6.1-6-6.1c0,0,0,0,0,0H208.4z"/>
		<path class="st7" d="M215.9,13.6c0,2.5-2,4.6-4.5,4.6c-2.5,0-4.6-2-4.6-4.5s2-4.6,4.5-4.6c0,0,0,0,0,0
			C213.9,9.1,215.9,11.1,215.9,13.6z"/>
		<path class="st4" d="M211.4,0c-1.7,0-3,1.3-3,3v9.1c0,1.7,1.4,3,3,3s3-1.4,3-3V3C214.4,1.3,213.1,0,211.4,0
			C211.4,0,211.4,0,211.4,0z"/>
		<path class="st7" d="M252.3,13.6c0,2.5-2,4.6-4.5,4.6c-2.5,0-4.6-2-4.6-4.5s2-4.6,4.5-4.6c0,0,0,0,0,0
			C250.3,9.1,252.3,11.1,252.3,13.6z"/>
		<path class="st4" d="M247.8,0c-1.6,0-3,1.3-3,2.9c0,0,0,0.1,0,0.1v9.1c0,1.7,1.4,3,3,3s3-1.4,3-3V3c0-1.6-1.3-3-2.9-3
			C247.9,0,247.8,0,247.8,0z"/>
		<path class="st4" d="M208.4,30.3v6.1h6.1v-6.1H208.4z M217.5,30.3v6.1h6.1v-6.1H217.5z M226.5,30.3v6.1h6.1v-6.1H226.5z
			 M235.6,30.3v6.1h6.1v-6.1H235.6z M244.7,30.3v6.1h6.1v-6.1H244.7z"/>
		<path class="st4" d="M208.4,39.4v6.1h6.1v-6.1H208.4z M217.5,39.4v6.1h6.1v-6.1H217.5z M226.5,39.4v6.1h6.1v-6.1H226.5z
			 M235.6,39.4v6.1h6.1v-6.1H235.6z M244.7,39.4v6.1h6.1v-6.1H244.7z"/>
		<path class="st4" d="M208.4,48.5v6.1h6.1v-6.1H208.4z M217.5,48.5v6.1h6.1v-6.1H217.5z M226.5,48.5v6.1h6.1v-6.1H226.5z
			 M235.6,48.5v6.1h6.1v-6.1H235.6z M244.7,48.5v6.1h6.1v-6.1H244.7z"/>
		<path class="st8" d="M264.3,53.2c0,8.3-6.7,15-15,15s-15-6.7-15-15s6.7-15,15-15S264.3,44.9,264.3,53.2z"/>
		<path class="st4" d="M249.3,39.4c-0.8,0-1.5,0.7-1.5,1.5v0v12.1c0,0.8,0.7,1.5,1.5,1.5h9.1c0.8,0.1,1.6-0.4,1.7-1.3
			c0.1-0.8-0.4-1.6-1.3-1.7c-0.2,0-0.3,0-0.5,0h-7.6V40.9C250.8,40.1,250.1,39.4,249.3,39.4L249.3,39.4z"/>
		<path class="st9" d="M249.3,36.4c-9.1-0.1-16.6,7.3-16.7,16.4c0,0.1,0,0.2,0,0.2c0.2,9.2,7.9,16.5,17.1,16.3
			c8.9-0.2,16-7.4,16.3-16.3c0.1-9.1-7.3-16.6-16.4-16.7C249.4,36.4,249.4,36.4,249.3,36.4z M249.3,39.4c7.5,0,13.6,6.1,13.6,13.6
			c0,0,0,0,0,0.1c0,7.5-6.1,13.6-13.6,13.6c-7.5,0-13.6-6.1-13.6-13.6C235.6,45.5,241.7,39.4,249.3,39.4
			C249.3,39.4,249.3,39.4,249.3,39.4L249.3,39.4z"/>
		<path class="st10" d="M250.8,53.1c0,0.8-0.7,1.5-1.5,1.5c-0.8,0-1.5-0.7-1.5-1.5s0.7-1.5,1.5-1.5S250.8,52.2,250.8,53.1
			L250.8,53.1z"/>
	</g>
</g>
</svg>
